<svg width="27" height="27" viewBox="0 0 27 27" fill="none" xmlns="http://www.w3.org/2000/svg">
<path fill-rule="evenodd" clip-rule="evenodd" d="M1.125 3.19275C1.125 2.64435 1.34285 2.11841 1.73063 1.73063C2.11841 1.34285 2.64435 1.125 3.19275 1.125H23.805C24.0768 1.12456 24.346 1.17772 24.5972 1.28145C24.8484 1.38518 25.0766 1.53744 25.2689 1.72951C25.4612 1.92157 25.6137 2.14968 25.7177 2.40076C25.8217 2.65185 25.8751 2.92098 25.875 3.19275V23.805C25.8753 24.0768 25.822 24.346 25.7181 24.5972C25.6143 24.8485 25.4619 25.0767 25.2698 25.269C25.0776 25.4612 24.8494 25.6137 24.5983 25.7177C24.3471 25.8217 24.0779 25.8752 23.8061 25.875H3.19275C2.92111 25.875 2.65214 25.8215 2.4012 25.7175C2.15025 25.6135 1.92226 25.4611 1.73023 25.269C1.53821 25.0768 1.38592 24.8488 1.28208 24.5978C1.17823 24.3468 1.12485 24.0778 1.125 23.8061V3.19275ZM10.9215 10.5615H14.2729V12.2445C14.7566 11.277 15.9941 10.4063 17.8538 10.4063C21.4189 10.4063 22.2638 12.3334 22.2638 15.8693V22.419H18.6559V16.6748C18.6559 14.661 18.1721 13.5248 16.9436 13.5248C15.2393 13.5248 14.5305 14.7499 14.5305 16.6748V22.419H10.9215V10.5615ZM4.734 22.2649H8.343V10.4063H4.734V22.2638V22.2649ZM8.85938 6.5385C8.86618 6.84751 8.81119 7.15476 8.69764 7.44223C8.5841 7.7297 8.41427 7.99159 8.19814 8.21254C7.982 8.43349 7.72391 8.60903 7.43901 8.72889C7.15411 8.84874 6.84815 8.91047 6.53906 8.91047C6.22998 8.91047 5.92401 8.84874 5.63911 8.72889C5.35421 8.60903 5.09612 8.43349 4.87999 8.21254C4.66386 7.99159 4.49403 7.7297 4.38048 7.44223C4.26693 7.15476 4.21195 6.84751 4.21875 6.5385C4.23211 5.93196 4.48243 5.35477 4.91612 4.93052C5.34981 4.50628 5.93238 4.26872 6.53906 4.26872C7.14575 4.26872 7.72832 4.50628 8.162 4.93052C8.59569 5.35477 8.84602 5.93196 8.85938 6.5385Z" fill="black"/>
</svg>
