<?xml version="1.0" ?><svg data-name="Layer 1" id="Layer_1" viewBox="0 0 512 512" xmlns="http://www.w3.org/2000/svg"><title/><rect fill="#50abf1" height="412.22" rx="55.43" width="412.22" x="49.89" y="49.89"/><path d="M347.22,174.38s18.61-5.1,31.75-12a45.34,45.34,0,0,1-19.7,26.27s10.21,2.19,25.9-6.56c0,0-5.84,15-23.72,25.54,0,0,5.48,72.24-53.63,118.58,0,0-73.71,66.77-168.21,11.68,0,0,37.95,5.11,72.61-21.9,0,0-35-.36-46.34-35,0,0,12.68.36,22-1.28,0,0-39.41-4.11-40.23-51.17,0,0,13.68,7,21.34,6.47C169,235,133.68,206,155,168c0,0,38.58,48.44,104.53,52,0,0-5.53-20.39,9.38-40.43,11.38-15.31,30-23.93,48.84-20.93C327.08,160.1,337.47,164.44,347.22,174.38Z" fill="#fefefe"/></svg>