<?xml version="1.0" encoding="UTF-8"?>
<svg xmlns="http://www.w3.org/2000/svg" xmlns:xlink="http://www.w3.org/1999/xlink" width="27px" height="27px" viewBox="0 0 27 27" version="1.1">
<g id="surface1">
<path style=" stroke:none;fill-rule:nonzero;fill:rgb(0%,0%,0%);fill-opacity:1;" d="M 8.625 3.386719 C 7.550781 3.46875 6.585938 3.8125 5.75 4.410156 C 5.453125 4.621094 5.316406 4.738281 5.027344 5.027344 C 4.5625 5.496094 4.246094 5.929688 3.964844 6.492188 C 3.636719 7.152344 3.457031 7.808594 3.390625 8.574219 C 3.367188 8.847656 3.371094 18.152344 3.390625 18.4375 C 3.523438 20.0625 4.335938 21.53125 5.648438 22.515625 C 6.4375 23.105469 7.382812 23.476562 8.402344 23.59375 C 8.691406 23.625 18.308594 23.625 18.597656 23.59375 C 19.941406 23.4375 21.132812 22.851562 22.054688 21.894531 C 22.824219 21.09375 23.332031 20.101562 23.53125 19.019531 C 23.621094 18.523438 23.617188 18.765625 23.617188 13.5 C 23.617188 8.234375 23.621094 8.476562 23.53125 7.980469 C 23.367188 7.089844 22.992188 6.261719 22.417969 5.519531 C 22.242188 5.292969 21.738281 4.78125 21.535156 4.625 C 20.648438 3.933594 19.796875 3.574219 18.6875 3.414062 C 18.5 3.386719 18.121094 3.386719 13.59375 3.382812 C 10.902344 3.382812 8.664062 3.382812 8.625 3.386719 Z M 20.535156 5.664062 C 20.738281 5.71875 20.976562 5.863281 21.097656 6.011719 C 21.417969 6.402344 21.460938 6.910156 21.210938 7.335938 C 21.136719 7.457031 20.957031 7.636719 20.835938 7.710938 C 20.386719 7.976562 19.828125 7.910156 19.457031 7.542969 C 19.070312 7.15625 19.015625 6.578125 19.324219 6.117188 C 19.585938 5.726562 20.074219 5.546875 20.535156 5.664062 Z M 14.234375 7.921875 C 14.675781 7.984375 15.078125 8.085938 15.460938 8.226562 C 17.261719 8.898438 18.601562 10.453125 19 12.328125 C 19.09375 12.773438 19.109375 12.9375 19.109375 13.5 C 19.109375 14.035156 19.09375 14.214844 19.015625 14.59375 C 18.773438 15.78125 18.179688 16.839844 17.304688 17.640625 C 16.898438 18.011719 16.476562 18.296875 15.972656 18.546875 C 15.167969 18.941406 14.398438 19.121094 13.5 19.121094 C 12.601562 19.121094 11.832031 18.941406 11.027344 18.546875 C 10.671875 18.371094 10.421875 18.21875 10.117188 17.992188 C 8.914062 17.085938 8.132812 15.753906 7.921875 14.242188 C 7.878906 13.941406 7.871094 13.246094 7.902344 12.925781 C 8.144531 10.632812 9.734375 8.734375 11.949219 8.089844 C 12.191406 8.023438 12.601562 7.941406 12.851562 7.914062 C 12.953125 7.902344 13.050781 7.890625 13.070312 7.890625 C 13.164062 7.871094 14.066406 7.898438 14.234375 7.921875 Z M 14.234375 7.921875 "/>
<path style=" stroke:none;fill-rule:nonzero;fill:rgb(0%,0%,0%);fill-opacity:1;" d="M 13.078125 10.152344 C 12.5 10.222656 11.914062 10.464844 11.433594 10.832031 C 11.289062 10.941406 11 11.222656 10.878906 11.375 C 10.050781 12.394531 9.894531 13.804688 10.472656 14.980469 C 11.476562 17.027344 14.179688 17.511719 15.824219 15.941406 C 16.578125 15.21875 16.960938 14.203125 16.859375 13.175781 C 16.792969 12.519531 16.535156 11.886719 16.121094 11.375 C 16 11.226562 15.714844 10.945312 15.566406 10.832031 C 14.859375 10.289062 13.96875 10.042969 13.078125 10.152344 Z M 13.078125 10.152344 "/>
</g>
</svg>
