<?xml version="1.0" encoding="UTF-8"?>
<svg xmlns="http://www.w3.org/2000/svg" xmlns:xlink="http://www.w3.org/1999/xlink" width="27px" height="27px" viewBox="0 0 27 27" version="1.1">
<g id="surface1">
<path style=" stroke:none;fill-rule:nonzero;fill:rgb(0%,0%,0%);fill-opacity:1;" d="M 2.140625 0.0273438 C 1.609375 0.117188 1.117188 0.375 0.734375 0.761719 C 0.417969 1.078125 0.242188 1.382812 0.0898438 1.871094 L 0.015625 2.105469 L 0.015625 24.871094 L 0.0898438 25.109375 C 0.242188 25.601562 0.425781 25.910156 0.746094 26.230469 C 1.078125 26.5625 1.449219 26.777344 1.90625 26.902344 L 2.132812 26.964844 L 24.84375 26.964844 L 25.078125 26.902344 C 25.953125 26.667969 26.664062 25.960938 26.902344 25.078125 L 26.964844 24.84375 L 26.964844 13.488281 C 26.964844 2.433594 26.960938 2.128906 26.910156 1.941406 C 26.664062 1.019531 26.039062 0.378906 25.121094 0.0898438 L 24.871094 0.015625 L 13.570312 0.0117188 C 7.355469 0.0078125 2.210938 0.015625 2.140625 0.0273438 Z M 14.1875 8.476562 C 14.558594 8.550781 14.699219 8.617188 14.835938 8.769531 C 15.03125 8.992188 15.046875 9.105469 15.03125 10.074219 C 15.023438 10.539062 15.015625 11.359375 15.015625 11.90625 C 15.015625 12.988281 15.027344 13.070312 15.183594 13.308594 C 15.398438 13.644531 15.632812 13.601562 16.066406 13.152344 C 16.71875 12.480469 17.578125 11.039062 18.167969 9.625 C 18.269531 9.371094 18.390625 9.121094 18.425781 9.074219 C 18.566406 8.890625 18.5 8.898438 20.414062 8.878906 C 22.003906 8.859375 22.164062 8.863281 22.308594 8.902344 C 22.398438 8.929688 22.5 8.96875 22.539062 8.992188 C 22.765625 9.140625 22.726562 9.523438 22.421875 10.128906 C 22.105469 10.765625 21.640625 11.445312 20.5625 12.847656 C 19.824219 13.804688 19.679688 14.046875 19.679688 14.339844 C 19.675781 14.613281 19.785156 14.773438 20.273438 15.25 C 21.800781 16.730469 22.304688 17.304688 22.59375 17.910156 C 22.679688 18.089844 22.6875 18.132812 22.679688 18.289062 C 22.667969 18.425781 22.652344 18.484375 22.59375 18.5625 C 22.503906 18.679688 22.238281 18.820312 22.023438 18.855469 C 21.941406 18.875 21.265625 18.894531 20.523438 18.90625 C 19.039062 18.929688 18.929688 18.921875 18.589844 18.78125 C 18.144531 18.59375 17.824219 18.316406 17.082031 17.480469 C 16.566406 16.898438 16.347656 16.691406 16.132812 16.5625 C 15.648438 16.28125 15.246094 16.636719 15.085938 17.480469 C 15.070312 17.5625 15.042969 17.800781 15.03125 18.003906 C 15.015625 18.207031 14.988281 18.425781 14.96875 18.484375 C 14.917969 18.648438 14.777344 18.765625 14.558594 18.832031 C 14.382812 18.886719 14.320312 18.890625 13.523438 18.878906 C 12.8125 18.867188 12.628906 18.855469 12.359375 18.808594 C 10.792969 18.515625 9.449219 17.710938 8.308594 16.375 C 7.523438 15.453125 6.734375 14.277344 5.863281 12.71875 C 5.511719 12.085938 4.796875 10.671875 4.488281 9.992188 C 4.289062 9.558594 4.257812 9.457031 4.246094 9.304688 C 4.234375 9.140625 4.238281 9.121094 4.308594 9.050781 C 4.347656 9.011719 4.445312 8.953125 4.523438 8.925781 C 4.65625 8.882812 4.789062 8.878906 6.140625 8.878906 C 7.589844 8.878906 7.613281 8.878906 7.738281 8.9375 C 7.957031 9.039062 8.035156 9.144531 8.242188 9.625 C 8.878906 11.097656 9.789062 12.628906 10.375 13.214844 C 10.699219 13.539062 10.898438 13.617188 11.109375 13.507812 C 11.371094 13.375 11.507812 12.699219 11.507812 11.578125 C 11.503906 10.253906 11.398438 9.691406 11.09375 9.441406 C 10.953125 9.320312 10.746094 9.226562 10.539062 9.183594 C 10.429688 9.160156 10.363281 9.132812 10.355469 9.109375 C 10.335938 8.992188 10.660156 8.683594 10.917969 8.589844 C 11.328125 8.4375 11.75 8.398438 12.953125 8.40625 C 13.789062 8.414062 13.921875 8.421875 14.1875 8.476562 Z M 14.1875 8.476562 "/>
</g>
</svg>
