<?xml version="1.0" encoding="UTF-8"?>
<svg xmlns="http://www.w3.org/2000/svg" xmlns:xlink="http://www.w3.org/1999/xlink" width="27px" height="27px" viewBox="0 0 27 27" version="1.1">
<g id="surface1">
<path style=" stroke:none;fill-rule:nonzero;fill:rgb(0%,0%,0%);fill-opacity:1;" d="M 2.300781 0.0429688 C 1.242188 0.234375 0.378906 1.03125 0.0898438 2.082031 L 0.015625 2.355469 L 0.015625 24.644531 L 0.0898438 24.917969 C 0.238281 25.453125 0.550781 25.957031 0.96875 26.3125 C 1.324219 26.617188 1.640625 26.789062 2.09375 26.914062 L 2.355469 26.984375 L 13.375 26.996094 C 25.554688 27.003906 24.664062 27.015625 25.164062 26.832031 C 25.921875 26.554688 26.582031 25.890625 26.835938 25.144531 C 27.011719 24.636719 27 25.507812 27 13.5 C 27 1.492188 27.011719 2.363281 26.835938 1.855469 C 26.582031 1.109375 25.921875 0.445312 25.164062 0.167969 C 24.667969 -0.015625 25.554688 0 13.476562 0.00390625 C 4.070312 0.00390625 2.492188 0.0117188 2.300781 0.0429688 Z M 14.808594 3.660156 C 17.117188 3.929688 19.15625 4.925781 20.722656 6.550781 C 22.167969 8.050781 23.050781 9.886719 23.351562 12 C 23.417969 12.476562 23.433594 13.691406 23.378906 14.207031 C 23.191406 15.972656 22.625 17.46875 21.601562 18.894531 C 21.253906 19.382812 20.964844 19.722656 20.535156 20.140625 C 19.183594 21.46875 17.386719 22.40625 15.566406 22.742188 C 14.828125 22.878906 13.667969 22.933594 12.957031 22.871094 C 11.757812 22.761719 10.703125 22.46875 9.625 21.957031 L 9.285156 21.796875 L 6.617188 22.492188 C 5.152344 22.878906 3.949219 23.179688 3.945312 23.171875 C 3.941406 23.164062 4.257812 21.984375 4.652344 20.558594 L 5.363281 17.964844 L 5.15625 17.542969 C 3.667969 14.578125 3.824219 11.082031 5.566406 8.222656 C 6.195312 7.1875 7.238281 6.082031 8.253906 5.367188 C 9.722656 4.335938 11.28125 3.789062 13.195312 3.625 C 13.417969 3.605469 14.550781 3.632812 14.808594 3.660156 Z M 14.808594 3.660156 "/>
<path style=" stroke:none;fill-rule:nonzero;fill:rgb(0%,0%,0%);fill-opacity:1;" d="M 13.273438 5.867188 C 11.785156 5.980469 10.332031 6.558594 9.121094 7.519531 C 7.867188 8.523438 6.933594 10.03125 6.570312 11.640625 C 6.464844 12.113281 6.421875 12.46875 6.402344 13.003906 C 6.34375 14.578125 6.78125 16.109375 7.664062 17.417969 C 7.722656 17.503906 7.769531 17.59375 7.769531 17.617188 C 7.769531 17.644531 7.625 18.191406 7.449219 18.835938 C 7.273438 19.480469 7.136719 20.011719 7.140625 20.015625 C 7.148438 20.019531 7.695312 19.886719 8.359375 19.710938 C 9.027344 19.539062 9.585938 19.394531 9.605469 19.394531 C 9.628906 19.394531 9.792969 19.484375 9.972656 19.589844 C 11.042969 20.222656 12.074219 20.546875 13.292969 20.636719 C 14.347656 20.714844 15.527344 20.527344 16.523438 20.128906 C 18.105469 19.492188 19.355469 18.414062 20.1875 16.953125 C 20.808594 15.863281 21.132812 14.75 21.175781 13.515625 C 21.246094 11.726562 20.675781 10.015625 19.542969 8.597656 C 19.273438 8.257812 18.683594 7.683594 18.316406 7.398438 C 17.238281 6.566406 15.925781 6.035156 14.617188 5.898438 C 14.195312 5.855469 13.632812 5.84375 13.273438 5.867188 Z M 11.238281 8.667969 C 11.445312 8.726562 11.605469 8.886719 11.738281 9.15625 C 11.792969 9.28125 12.007812 9.785156 12.207031 10.273438 C 12.640625 11.335938 12.640625 11.339844 12.460938 11.714844 C 12.390625 11.859375 12.265625 12.046875 12.113281 12.234375 C 11.980469 12.390625 11.875 12.542969 11.875 12.5625 C 11.875 12.585938 11.933594 12.710938 12.007812 12.84375 C 12.464844 13.691406 13.351562 14.507812 14.367188 15.015625 C 14.859375 15.261719 14.828125 15.261719 15.121094 14.972656 C 15.253906 14.835938 15.457031 14.609375 15.574219 14.460938 C 15.824219 14.148438 15.925781 14.074219 16.152344 14.054688 C 16.371094 14.039062 16.582031 14.117188 17.425781 14.53125 C 18.695312 15.148438 18.753906 15.1875 18.816406 15.457031 C 18.894531 15.777344 18.777344 16.492188 18.589844 16.84375 C 18.324219 17.34375 17.535156 17.871094 16.839844 18.011719 C 16.566406 18.066406 15.921875 18.070312 15.648438 18.019531 C 15.398438 17.976562 14.722656 17.761719 14.214844 17.5625 C 13.136719 17.144531 12.25 16.566406 11.367188 15.703125 C 10.765625 15.113281 10.34375 14.625 9.824219 13.90625 C 9.25 13.113281 8.988281 12.597656 8.8125 11.929688 C 8.738281 11.65625 8.710938 10.992188 8.761719 10.695312 C 8.90625 9.796875 9.546875 8.875 10.164062 8.675781 C 10.371094 8.609375 11.027344 8.605469 11.238281 8.667969 Z M 11.238281 8.667969 "/>
</g>
</svg>
