<?xml version="1.0" encoding="iso-8859-1"?>
<!-- Generator: Adobe Illustrator 19.0.0, SVG Export Plug-In . SVG Version: 6.00 Build 0)  -->
<svg version="1.1" id="Layer_1" xmlns="http://www.w3.org/2000/svg" xmlns:xlink="http://www.w3.org/1999/xlink" x="0px" y="0px"
	 viewBox="0 0 512 512" style="enable-background:new 0 0 512 512;" xml:space="preserve">
<g>
	<g>
		<path d="M495.974,232.26c-3.106-1.254-6.349-1.86-9.566-1.86c-6.827,0-13.525,2.731-18.449,7.851
			c-24.175,25.122-53.495,45.406-83.772,58.59c12.442-24.875,23.125-52.284,21.649-82.62c-0.461-9.429-6.076-17.843-14.609-21.888
			c-3.49-1.656-7.228-2.466-10.957-2.466c-5.385,0-10.743,1.698-15.223,5.018c-15.488,11.452-51.234,20.932-82.065,24.687
			c15.59-22.861,24.218-50.108,24.218-78.771C307.2,63.164,244.036,0,166.4,0c-29.167,0-54.076,7.27-74.035,21.598L91.247,22.4
			c-8.294,5.956-15.386,11.042-23.142,19.473l-36.787-8.422c-1.903-0.435-3.823-0.649-5.717-0.649
			c-7.603,0-14.925,3.388-19.849,9.438c-6.153,7.561-7.484,17.954-3.422,26.82c7.834,17.118,16.375,36.062,21.077,46.839
			C4.122,161.604,0,205.329,0,256c0,141.158,114.842,256,256,256s256-114.842,256-256C512,245.555,505.66,236.16,495.974,232.26z
			 M256,486.4C128.751,486.4,25.6,383.241,25.6,256c0-50.415,4.002-93.602,25.6-139.597c0.427-1.152-25.6-58.001-25.6-58.001
			L78.003,70.4c10.47-14.729,17.237-19.345,29.295-28.006C123.998,30.404,144.7,25.6,166.4,25.6c63.625,0,115.2,51.576,115.2,115.2
			c0,41.25-21.854,77.158-54.443,97.51c0.597,5.897,12.698,8.602,30.131,8.602c36.574,0,96.614-11.938,122.982-31.445
			c2.133,43.733-27.733,82.133-45.867,122.138C388.796,330.138,445.338,298.667,486.4,256C486.4,383.241,383.249,486.4,256,486.4z"
			/>
	</g>
</g>
<g>
</g>
<g>
</g>
<g>
</g>
<g>
</g>
<g>
</g>
<g>
</g>
<g>
</g>
<g>
</g>
<g>
</g>
<g>
</g>
<g>
</g>
<g>
</g>
<g>
</g>
<g>
</g>
<g>
</g>
</svg>
