<svg width="27" height="27" viewBox="0 0 27 27" fill="none" xmlns="http://www.w3.org/2000/svg">
<path d="M13.5 9.98525C11.5647 9.98525 9.98526 11.5646 9.98526 13.5C9.98526 15.4354 11.5647 17.0147 13.5 17.0147C15.4354 17.0147 17.0147 15.4354 17.0147 13.5C17.0147 11.5646 15.4354 9.98525 13.5 9.98525ZM24.0416 13.5C24.0416 12.0445 24.0548 10.6022 23.9731 9.14941C23.8913 7.46191 23.5064 5.96426 22.2724 4.73027C21.0357 3.49365 19.5407 3.11133 17.8532 3.02959C16.3978 2.94785 14.9555 2.96104 13.5026 2.96104C12.0472 2.96104 10.6049 2.94785 9.15205 3.02959C7.46455 3.11133 5.9669 3.49629 4.73291 4.73027C3.49629 5.96689 3.11397 7.46191 3.03223 9.14941C2.95049 10.6049 2.96367 12.0472 2.96367 13.5C2.96367 14.9528 2.95049 16.3978 3.03223 17.8506C3.11397 19.5381 3.49893 21.0357 4.73291 22.2697C5.96953 23.5063 7.46455 23.8887 9.15205 23.9704C10.6075 24.0521 12.0498 24.039 13.5026 24.039C14.9581 24.039 16.4004 24.0521 17.8532 23.9704C19.5407 23.8887 21.0384 23.5037 22.2724 22.2697C23.509 21.0331 23.8913 19.5381 23.9731 17.8506C24.0574 16.3978 24.0416 14.9555 24.0416 13.5ZM13.5 18.9079C10.5073 18.9079 8.09209 16.4927 8.09209 13.5C8.09209 10.5073 10.5073 8.09209 13.5 8.09209C16.4927 8.09209 18.9079 10.5073 18.9079 13.5C18.9079 16.4927 16.4927 18.9079 13.5 18.9079ZM19.1294 9.13359C18.4307 9.13359 17.8664 8.56934 17.8664 7.87061C17.8664 7.17188 18.4307 6.60762 19.1294 6.60762C19.8281 6.60762 20.3924 7.17188 20.3924 7.87061C20.3926 8.03652 20.3601 8.20085 20.2967 8.35418C20.2333 8.5075 20.1402 8.64682 20.0229 8.76414C19.9056 8.88146 19.7663 8.97448 19.613 9.03788C19.4596 9.10128 19.2953 9.1338 19.1294 9.13359Z" fill="black"/>
</svg>
