<svg width="27" height="27" viewBox="0 0 27 27" fill="none" xmlns="http://www.w3.org/2000/svg">
<path d="M23.2031 2.95312H3.79688C3.33018 2.95312 2.95312 3.33018 2.95312 3.79688V23.2031C2.95312 23.6698 3.33018 24.0469 3.79688 24.0469H23.2031C23.6698 24.0469 24.0469 23.6698 24.0469 23.2031V3.79688C24.0469 3.33018 23.6698 2.95312 23.2031 2.95312ZM19.1769 10.5917C19.1848 10.7156 19.1848 10.8448 19.1848 10.9714C19.1848 14.8421 16.2369 19.3008 10.8501 19.3008C9.18896 19.3008 7.64912 18.8183 6.35186 17.9877C6.58916 18.0141 6.81592 18.0246 7.0585 18.0246C8.42959 18.0246 9.68994 17.5605 10.6945 16.7748C9.40781 16.7484 8.32676 15.9047 7.95762 14.7445C8.4085 14.8104 8.81455 14.8104 9.27861 14.6918C8.61608 14.5572 8.02057 14.1974 7.59327 13.6735C7.16596 13.1495 6.93322 12.4938 6.93457 11.8178V11.7809C7.32217 11.9997 7.77832 12.1342 8.25557 12.1526C7.85437 11.8853 7.52535 11.523 7.29768 11.098C7.07 10.673 6.95072 10.1984 6.95039 9.71631C6.95039 9.17051 7.09277 8.67217 7.34854 8.23975C8.08392 9.14503 9.00157 9.88543 10.0419 10.4128C11.0821 10.9402 12.2217 11.2428 13.3866 11.301C12.9727 9.31025 14.4598 7.69922 16.2475 7.69922C17.0912 7.69922 17.8506 8.05254 18.3858 8.62207C19.0477 8.49814 19.6805 8.25029 20.2447 7.91807C20.0259 8.5957 19.5671 9.16787 18.958 9.5291C19.5486 9.46582 20.1182 9.30234 20.6455 9.07295C20.2474 9.6583 19.749 10.1777 19.1769 10.5917Z" fill="black"/>
</svg>
